HIERARCHY
ROOT hip
{
	OFFSET 0.000000 0.000000 0.000000 
	CHANNELS 6 Xposition Yposition Zposition Xrotation Zrotation Yrotation
	JOINT abdomen
	{
		OFFSET 0.000000 3.402643 0.000000 
		CHANNELS 3 Xrotation Zrotation Yrotation
		JOINT chest
		{
			OFFSET 0.000000 8.438565 -0.680529 
			CHANNELS 3 Xrotation Zrotation Yrotation
			JOINT neck
			{
				OFFSET 0.000000 10.207942 -0.272212 
				CHANNELS 3 Xrotation Zrotation Yrotation
				JOINT head
				{
					OFFSET 0.000000 3.130431 0.000000 
					CHANNELS 3 Xrotation Zrotation Yrotation
					End Site
					{
						OFFSET 0.000000 3.130435 0.000000 
					}
				}
			}
			JOINT lCollar
			{
				OFFSET 3.470700 6.669187 -0.816635 
				CHANNELS 3 Yrotation Zrotation Xrotation
				JOINT lShldr
				{
					OFFSET 3.198488 0.000000 0.000000 
					CHANNELS 3 Zrotation Yrotation Xrotation
					JOINT lForeArm
					{
						OFFSET 10.139888 0.000000 0.000000 
						CHANNELS 3 Yrotation Zrotation Xrotation
						JOINT lHand
						{
							OFFSET 8.370511 0.000000 0.000000 
							CHANNELS 3 Zrotation Yrotation Xrotation
							End Site
							{
								OFFSET 4.083176 0.000000 0.000000 
							}
						}
					}
				}
			}
			JOINT rCollar
			{
				OFFSET -3.470700 6.669187 -0.816635 
				CHANNELS 3 Yrotation Zrotation Xrotation
				JOINT rShldr
				{
					OFFSET -3.198488 0.000000 0.000000 
					CHANNELS 3 Zrotation Yrotation Xrotation
					JOINT rForeArm
					{
						OFFSET -10.139888 0.000000 0.000000 
						CHANNELS 3 Yrotation Zrotation Xrotation
						JOINT rHand
						{
							OFFSET -8.370511 0.000000 0.000000 
							CHANNELS 3 Zrotation Yrotation Xrotation
							End Site
							{
								OFFSET -4.083176 0.000000 0.000000 
							}
						}
					}
				}
			}
		}
	}
	JOINT lThigh
	{
		OFFSET 5.308129 -1.633274 1.361059 
		CHANNELS 3 Xrotation Zrotation Yrotation
		JOINT lShin
		{
			OFFSET -2.041588 -20.007561 0.000000 
			CHANNELS 3 Xrotation Zrotation Yrotation
			JOINT lFoot
			{
				OFFSET 0.000000 -19.190928 -1.224953 
				CHANNELS 3 Xrotation Yrotation Zrotation
				End Site
				{
					OFFSET 0.000000 -2.449906 4.627600 
				}
			}
		}
	}
	JOINT rThigh
	{
		OFFSET -5.308129 -1.633274 1.361059 
		CHANNELS 3 Xrotation Zrotation Yrotation
		JOINT rShin
		{
			OFFSET 2.041588 -20.007561 0.000000 
			CHANNELS 3 Xrotation Zrotation Yrotation
			JOINT rFoot
			{
				OFFSET 0.000000 -19.190928 -1.224953 
				CHANNELS 3 Xrotation Yrotation Zrotation
				End Site
				{
					OFFSET 0.000000 -2.449906 4.627600 
				}
			}
		}
	}
}
MOTION
Frames: 20
Frame Time: 0.033333
0.529971 48.642651 -3.754112 -1.709385 1.239683 12.111453 0.000000 0.000000 0.000000 0.401962 -5.068235 0.530172 4.546875 -11.661407 -16.956253 -12.383302 7.263469 -23.255091 -4.953822 -9.012856 0.375148 -26.384552 38.438877 103.459106 -122.146431 33.426594 71.143852 42.358829 -7.347960 -7.471801 6.363752 13.052909 0.545984 48.981064 -5.061182 23.057425 42.258381 13.910877 19.233711 -11.546164 -6.789032 -3.206498 -4.611637 1.899977 5.907052 19.796143 -4.747152 10.639855 -13.261638 -0.008556 0.115754 1.754943 -19.268473 -13.208621 -1.636194 -0.517484 -8.102811 11.390037 1.703925 17.224560 
-0.008137 48.646801 -3.683223 -1.778029 1.591031 12.060012 0.000000 0.000000 0.000000 0.607947 -5.175491 0.413250 4.813863 -11.748173 -17.213036 -13.079117 7.183975 -23.471140 -5.176913 -8.923287 0.541174 -25.886578 38.962704 102.672112 -121.847610 33.120827 71.538704 41.438210 -7.818294 -7.549221 6.267347 12.917009 0.731199 48.674583 -4.483526 23.632223 42.289543 14.043357 19.004223 -11.546291 -6.651974 -3.224419 -4.505535 2.163925 5.898825 19.688425 -4.567674 10.677241 -12.937432 0.056660 -0.592921 2.145480 -18.977238 -13.184034 -1.580731 -0.499299 -7.553903 10.785116 1.599453 16.836470 
-0.637100 48.659512 -3.593687 -1.641522 1.893754 12.172332 0.000000 0.000000 0.000000 0.696406 -5.360934 0.168679 4.715513 -11.724946 -17.713343 -13.033577 6.431117 -23.334370 -5.577145 -8.706145 0.565031 -25.333239 39.741199 102.442406 -121.782394 32.923836 71.249580 39.897736 -8.272450 -7.531032 6.041174 12.590270 0.808479 48.644688 -3.609607 24.538109 42.017227 14.275296 19.207747 -11.842915 -7.123415 -3.166572 -4.484501 2.630807 5.929805 19.456505 -4.500458 10.278318 -12.529970 0.154778 -1.294189 2.321277 -18.331842 -12.983292 -1.531510 -0.538089 -8.910170 9.283550 1.289193 15.950711 
-1.297272 48.711365 -3.466799 -1.631934 2.079235 12.489643 0.000000 0.000000 0.000000 0.853424 -5.419324 -0.110466 4.850506 -11.780500 -18.289740 -13.355706 6.153625 -23.558159 -6.080954 -8.479407 0.655685 -24.715708 40.325527 102.760971 -121.487495 32.978729 72.044899 40.208279 -8.118712 -7.512961 5.690654 12.587346 0.929972 48.368198 -2.843977 25.247255 41.878643 14.452340 19.627834 -11.436242 -6.830193 -3.211206 -4.107595 3.258041 6.069021 18.702734 -4.395668 9.721358 -11.891445 0.218947 -1.988488 2.411582 -17.539034 -12.689102 -1.629014 -0.586603 -11.053454 8.641147 1.092175 14.849755 
-1.993438 48.740562 -3.301857 -1.661410 2.225628 12.728480 0.000000 0.000000 0.000000 0.922180 -5.477810 -0.303413 5.049308 -11.561316 -19.025024 -13.550503 5.393253 -23.724264 -6.619488 -7.993131 0.676492 -24.343830 40.991817 103.636192 -120.993752 33.084976 71.687469 39.858715 -7.707280 -7.328978 5.504648 12.921329 0.955613 47.783783 -2.470915 25.997231 41.839550 14.537461 20.824881 -11.145226 -6.956471 -3.208744 -3.734130 3.908244 6.085530 18.131195 -4.111092 9.136128 -11.356288 0.297449 -2.891083 2.654106 -16.840790 -12.367018 -1.696321 -0.576487 -11.681813 7.838302 0.969347 14.127565 
-2.679031 48.780571 -3.135832 -1.671194 2.235378 12.688753 0.000000 0.000000 0.000000 0.931619 -5.233687 -0.417556 5.321748 -11.501437 -19.413334 -14.395870 4.910344 -23.936144 -6.664413 -7.536952 0.723116 -24.336079 40.847088 105.170753 -120.319817 33.440853 71.477493 39.626675 -7.178071 -7.125579 5.517948 12.961208 0.936618 47.546288 -1.937987 26.695669 41.818501 14.818847 20.808636 -10.987500 -7.258633 -3.185136 -3.368476 4.578755 5.999958 17.341145 -3.684849 9.148147 -10.655144 0.364919 -3.903007 2.674001 -16.285782 -12.374928 -1.685641 -0.127831 -11.704072 7.287867 0.823221 13.186591 
-3.343985 48.816818 -2.937453 -1.964136 2.039818 12.889090 0.000000 0.000000 0.000000 1.107359 -4.774503 -0.571190 5.561794 -11.061095 -19.887930 -14.888318 4.112237 -24.021181 -6.857121 -7.033571 0.918233 -25.146276 40.506855 106.276299 -119.877907 33.784870 72.075516 38.522438 -6.889244 -6.915619 5.445776 13.599963 1.040203 46.678860 -1.751969 27.300777 42.186466 14.959615 21.352482 -11.102726 -7.413615 -3.174149 -2.821207 5.387491 5.929591 16.720457 -3.057625 8.983090 -10.101039 0.455016 -4.977557 3.122202 -15.569111 -12.537489 -1.689495 0.544862 -11.479252 6.450993 0.674811 12.211895 
-4.049335 48.851295 -2.752176 -1.973446 1.620133 12.746941 0.000000 0.000000 0.000000 1.047721 -4.188755 -0.565327 5.564109 -10.688110 -20.081043 -15.167407 3.244858 -23.967113 -7.028054 -6.771770 0.902618 -26.022501 40.299427 108.033806 -120.402847 34.335564 72.409256 37.646561 -5.826284 -6.486471 5.558257 13.887018 0.942139 46.259518 -1.538625 27.938927 42.545872 15.049270 21.324871 -11.030033 -7.614082 -3.153135 -2.509709 6.532712 6.209831 16.029531 -2.716860 8.848223 -9.528536 0.503013 -5.971626 2.919590 -14.452786 -12.155823 -1.669435 0.984110 -12.213943 6.223432 0.575647 11.036045 
-4.715672 48.900753 -2.522611 -2.207936 1.639408 12.837219 0.000000 0.000000 0.000000 1.213827 -3.954194 -0.699425 5.609828 -10.163815 -20.311462 -15.601556 1.995347 -23.435564 -7.212920 -6.696848 1.055020 -27.507860 39.848530 108.910042 -121.370232 34.777615 72.430351 39.196709 -5.940341 -6.660888 5.464685 14.329009 1.050356 45.661358 -1.186002 28.455418 42.648525 15.198450 21.211832 -11.279977 -7.651320 -3.145633 -1.455017 7.173983 6.301415 14.468946 -2.336189 8.707792 -8.566523 0.514360 -6.885878 1.512262 -13.981756 -11.562963 1.764635 1.155969 -12.488063 4.166848 0.374599 10.548560 
-5.412970 48.939262 -2.336110 -2.178228 1.219821 13.127446 0.000000 0.000000 0.000000 1.154456 -3.466095 -1.124956 5.575111 -9.753985 -20.583393 -15.967117 1.589845 -23.236528 -7.297010 -6.348445 1.041457 -28.964596 39.377720 108.650780 -121.829308 34.941944 73.794144 41.359200 -5.306076 -6.636600 5.195476 15.046217 0.895246 44.913616 -0.769730 29.035418 42.900276 15.330811 20.729155 -11.632031 -7.754605 -3.124861 -1.015360 8.303980 6.659899 13.268541 -2.052915 8.282200 -7.677262 0.503324 -7.720367 0.409513 -13.053042 -11.034636 3.883773 1.470715 -13.128447 2.766863 0.218191 9.843666 
-6.100575 48.949455 -2.152671 -2.070534 0.839296 13.446223 0.000000 0.000000 0.000000 1.007229 -2.987820 -1.595912 5.401307 -9.433791 -20.854675 -15.793669 0.818222 -22.763636 -7.532334 -6.189633 0.950181 -29.781431 38.989738 107.870766 -121.494774 34.817974 74.534676 42.675125 -4.870709 -6.582417 4.857069 15.591317 0.694449 44.597538 -0.702632 29.105011 43.186535 15.298415 20.780239 -11.445362 -7.917588 -3.108189 -0.723211 9.409316 6.963640 12.222540 -1.806905 7.643161 -6.914991 0.515919 -8.531513 -1.016355 -12.249021 -10.579599 6.554492 1.809696 -13.793216 1.107249 0.079595 9.236407 
-6.779750 48.950966 -1.970828 -1.845734 0.331859 13.924854 0.000000 0.000000 0.000000 0.772180 -2.431420 -2.064395 5.629930 -8.951895 -21.173170 -17.617294 0.157693 -22.460478 -7.458994 -5.936149 0.809166 -29.697645 37.885155 108.578316 -121.062477 34.999447 73.981445 42.499714 -4.081945 -6.273804 4.564272 16.199951 0.403031 44.571930 -1.117491 28.621050 43.550613 14.989828 20.698132 -10.864642 -8.023409 -3.131118 -0.635043 10.672935 7.427742 11.176050 -1.689016 6.735098 -6.115471 0.485711 -9.249788 -2.187472 -11.227553 -10.077036 8.601275 2.078743 -14.600015 -0.333077 -0.028383 8.665609 
-7.425828 48.960651 -1.827933 -1.025419 -0.429619 14.392455 0.000000 0.000000 0.000000 0.019541 -1.767578 -2.266529 5.483704 -8.492494 -21.311857 -18.828787 -0.381373 -22.223927 -7.468921 -5.352866 0.209550 -30.003344 36.132378 109.471001 -120.174690 35.393726 75.246712 42.674759 -1.538376 -5.337419 4.802225 17.159624 -0.396235 44.316441 -2.037376 28.373436 43.948654 15.085306 18.060814 -12.253430 -8.161183 -3.062971 -1.162508 11.846806 7.599887 9.814227 -1.453354 6.152076 -5.115466 0.465688 -9.985396 -3.495203 -10.122024 -9.558923 9.588480 2.450511 -15.209272 -1.298188 -0.105919 8.023380 
-8.043215 48.940014 -1.666050 -0.908208 -0.185524 14.768564 0.000000 0.000000 0.000000 -0.068393 -1.787108 -2.214665 5.497992 -8.285490 -21.097639 -19.256098 -1.321028 -21.528589 -7.297792 -5.332808 0.143863 -30.399380 33.855194 108.944221 -119.633972 35.218418 73.953484 43.057724 -0.741283 -5.054950 4.995212 17.534607 -0.519348 44.192104 -2.825171 28.158758 44.025288 15.212139 16.621410 -12.938928 -8.220237 -3.027568 -0.127605 12.127560 7.794948 7.246500 -1.316018 5.920548 -3.539065 0.326683 -10.608956 -4.638513 -9.969764 -9.568514 12.005449 2.681937 -15.555860 -2.823807 -0.197009 7.614831 
-8.600823 48.936623 -1.526364 -0.410159 -0.214838 15.314039 0.000000 0.000000 0.000000 -0.517811 -1.718680 -2.269633 5.427331 -8.035703 -20.955595 -19.740200 -1.701931 -21.035387 -7.133806 -5.495490 -0.259851 -30.592024 31.515961 108.353188 -119.142776 35.053146 72.514381 44.614250 -0.834046 -5.157264 5.120409 17.820749 -0.973268 44.293636 -3.869262 27.849018 43.940266 15.341845 15.710535 -13.178087 -8.139594 -3.017172 0.527078 12.508139 8.075581 4.688778 -1.363869 5.589594 -2.038866 0.198268 -11.010513 -5.622163 -9.748140 -9.611668 13.267839 3.113039 -15.713782 -3.817470 -0.231076 7.042764 
-9.091990 48.960148 -1.401817 0.576174 -0.136712 15.936102 0.000000 0.000000 0.000000 -1.377722 -1.913510 -2.405186 5.176477 -7.731388 -20.787024 -20.255667 -2.104280 -20.276361 -7.060052 -5.748930 -1.048403 -30.365225 29.506622 108.514984 -118.300613 35.046959 71.692528 47.031139 -0.902370 -5.284329 5.412323 18.033392 -1.842976 44.181755 -5.181754 27.996555 43.744484 15.522859 16.430141 -13.340257 -8.180711 -3.014830 1.717658 12.380831 8.214917 0.145058 -1.439239 5.704394 0.417684 -0.036132 -11.200539 -6.892837 -9.615620 -9.517772 14.142282 3.246894 -16.663414 -4.490000 -0.272985 6.668610 
-9.484368 48.984818 -1.329734 1.455079 -0.048812 16.365938 0.000000 0.000000 0.000000 -2.110817 -2.117704 -2.441549 5.008684 -7.550661 -20.572430 -20.759718 -1.889664 -19.933493 -7.335148 -6.224822 -1.762769 -29.983902 28.116737 108.678787 -116.689125 34.803493 70.109764 50.548710 -1.239880 -5.601996 5.701535 17.969675 -2.551784 43.984974 -6.034061 28.701691 43.491009 15.869711 17.019064 -13.371563 -8.545276 -2.972881 1.913814 12.226103 8.338251 -2.098395 -1.608027 7.115215 1.929560 -0.200706 -11.192989 -7.987286 -9.500181 -9.390543 14.730250 3.297150 -17.524323 -4.934077 -0.277886 6.346337 
-9.742347 49.055660 -1.315853 1.943388 0.312320 16.563387 0.000000 0.000000 0.000000 -2.443499 -2.370892 -2.281755 4.718930 -7.528524 -20.416622 -20.190691 -1.763149 -19.822353 -8.072636 -7.032011 -2.173828 -29.356970 27.673443 109.251099 -115.798088 34.727211 68.543343 52.892635 -1.148842 -5.669427 5.981508 17.290918 -2.816088 44.460163 -6.571877 28.980558 42.749290 16.079155 18.271835 -13.445979 -8.589840 -2.968046 1.736536 11.615367 8.003275 -2.008427 -1.480408 8.826016 1.907676 -0.182112 -11.207969 -8.270782 -9.676336 -9.434072 14.466288 3.326020 -17.666159 -4.916861 -0.264070 5.991082 
-9.923184 49.092159 -1.315223 1.933731 0.683205 16.488024 0.000000 0.000000 0.000000 -2.365530 -2.497872 -2.055148 4.681960 -7.605690 -20.102180 -19.977657 -1.209211 -19.917629 -8.934258 -8.373638 -2.259748 -27.744093 28.161276 110.470467 -116.229149 35.040012 67.767326 54.282082 -1.707646 -6.016706 6.184699 16.794441 -2.691905 44.329132 -6.896719 29.308956 42.701057 16.057369 20.222540 -12.266111 -8.651649 -3.010935 2.263917 10.963737 8.398884 -1.834412 -1.832407 12.110334 1.898402 -0.178636 -10.616126 -8.269350 -9.693564 -9.306227 14.449523 3.155144 -17.726286 -4.916319 -0.249327 5.838179 
-10.030149 49.145771 -1.278390 1.582256 0.966428 16.384277 0.000000 0.000000 0.000000 -2.043225 -2.664323 -1.955866 4.496425 -7.432906 -19.870571 -19.387815 -0.810599 -19.832891 -9.753680 -8.727007 -2.078247 -27.640108 29.093515 109.818192 -115.960617 34.739708 67.220390 54.738533 -1.776958 -6.079624 6.208250 16.286488 -2.347974 44.287395 -6.364807 30.080225 42.342861 16.297724 19.845329 -12.487231 -8.550012 -3.010982 2.877988 10.335245 8.931147 0.214604 -2.200716 14.774850 0.124344 0.008517 -10.329144 -7.615527 -9.645249 -9.367454 13.908771 3.110565 -17.553082 -4.723064 -0.224716 5.633162 
